<?xml version="1.0" encoding="UTF-8" standalone="no"?>
<svg
   xmlns:dc="http://purl.org/dc/elements/1.1/"
   xmlns:cc="http://creativecommons.org/ns#"
   xmlns:rdf="http://www.w3.org/1999/02/22-rdf-syntax-ns#"
   xmlns:svg="http://www.w3.org/2000/svg"
   xmlns="http://www.w3.org/2000/svg"
   xmlns:sodipodi="http://sodipodi.sourceforge.net/DTD/sodipodi-0.dtd"
   xmlns:inkscape="http://www.inkscape.org/namespaces/inkscape"
   sodipodi:docname="logo.svg"
   inkscape:version="1.0alpha2 (863a58d, 2019-08-17)"
   id="svg8"
   version="1.1"
   viewBox="0 0 101.66914 62.758505"
   height="2.4708073in"
   width="4.0027223in">
  <defs
     id="defs2" />
  <sodipodi:namedview
     inkscape:window-maximized="0"
     inkscape:window-y="23"
     inkscape:window-x="0"
     inkscape:window-height="907"
     inkscape:window-width="1801"
     showgrid="false"
     inkscape:document-rotation="0"
     inkscape:current-layer="layer1"
     inkscape:document-units="mm"
     inkscape:cy="353.77407"
     inkscape:cx="-96.262418"
     inkscape:zoom="0.79231441"
     inkscape:pageshadow="2"
     inkscape:pageopacity="0.0"
     borderopacity="1.0"
     bordercolor="#666666"
     pagecolor="#ffffff"
     id="base"
     units="in" />
  <metadata
     id="metadata5">
    <rdf:RDF>
      <cc:Work
         rdf:about="">
        <dc:format>image/svg+xml</dc:format>
        <dc:type
           rdf:resource="http://purl.org/dc/dcmitype/StillImage" />
        <dc:title />
      </cc:Work>
    </rdf:RDF>
  </metadata>
  <g
     transform="translate(-236.42733,84.29591)"
     style="display:inline;opacity:1"
     id="layer1"
     inkscape:groupmode="layer"
     inkscape:label="Layer 1">
    <rect
       y="-84.261337"
       x="236.4619"
       height="62.689365"
       width="101.6"
       id="rect860"
       style="opacity:1;fill:#f8f9f6;fill-opacity:1;stroke:#000000;stroke-width:0.0691436;stroke-opacity:0;stop-opacity:1" />
    <flowRoot
       transform="matrix(0.06304964,0,0,0.06304964,218.808,-40.30673)"
       style="font-style:normal;font-weight:normal;font-size:40px;font-family:sans-serif;opacity:1;fill:#000000;fill-opacity:1;stroke:none;stop-opacity:1"
       id="flowRoot847"
       xml:space="preserve"><flowRegion
         id="flowRegion849"><rect
           style=""
           y="702.85712"
           x="962.85712"
           height="362.85715"
           width="477.14285"
           id="rect851" /></flowRegion><flowPara
         id="flowPara853" /></flowRoot>    <text
       id="text857"
       y="-33.78619"
       x="246.9304"
       style="font-style:normal;font-weight:normal;font-size:24.7234px;line-height:normal;font-family:sans-serif;letter-spacing:-1.19038px;opacity:1;fill:#02515e;fill-opacity:1;stroke:none;stroke-width:0.61809;stop-opacity:1"
       xml:space="preserve"><tspan
         dx="0 0.32170212 0 0 0.52425534 0.50042552 -0.50042552"
         style="font-style:normal;font-variant:normal;font-weight:normal;font-stretch:normal;line-height:0;font-family:ScrambleMixed;-inkscape-font-specification:ScrambleMixed;letter-spacing:-1.19038px;fill:#02515e;fill-opacity:1;stroke-width:0.61809"
         y="-33.78619"
         x="246.9304"
         id="tspan855"
         sodipodi:role="line">AL<tspan
   dx="0.2788085 -1.1247661"
   id="tspan941"
   style="letter-spacing:-1.29378px;fill:#02515e;fill-opacity:1;stroke-width:0.61809">FA</tspan>BET</tspan></text>
    <g
       transform="translate(2.0900377)"
       id="g860">
      <path
         id="path1027"
         style="opacity:1;fill:#ffb92a;fill-opacity:1;stroke-width:0.0630496;stop-opacity:1"
         d="m 283.27697,-72.093888 c -4.14456,-4.9e-5 -7.50482,3.357477 -7.50943,7.500937 -0.12869,0.981334 -0.33197,1.902891 -1.29338,2.25267 -0.75148,0.361454 -1.50305,0.135514 -2.25452,-0.200601 a 4.9127347,4.9127347 0 0 0 -3.04929,-1.061008 4.9127347,4.9127347 0 0 0 -4.9127,4.912823 4.9127347,4.9127347 0 0 0 4.9127,4.9127 4.9127347,4.9127347 0 0 0 4.9127,-4.9127 4.9127347,4.9127347 0 0 0 -0.039,-0.617443 c 0.0451,-0.972878 0.31105,-1.442608 1.03072,-1.708867 0.6738,-0.249289 1.32579,0.03461 1.85615,0.447259 1.33152,2.099488 3.67596,3.493252 6.34609,3.49322 2.56909,-1.2e-5 4.95987,-1.313372 6.33784,-3.481645 2.60937,-2.426095 4.19216,-0.74867 4.45054,-2.416944 0.26368,-1.702429 -1.74278,-0.304337 -3.58274,-3.724855 -0.1774,-0.604792 -0.43023,-1.184844 -0.75254,-1.726476 -0.0133,-0.03716 -0.0267,-0.07322 -0.04,-0.111076 l -0.005,0.03645 c -1.36401,-2.232632 -3.79171,-3.594398 -6.40804,-3.594445 z"
         inkscape:connector-curvature="0" />
      <path
         id="circle1031"
         style="opacity:1;fill:#ff7b15;fill-opacity:1;stroke-width:0.0412474;stop-opacity:1"
         d="m 301.17334,-63.671959 c -0.6469,-3.8e-5 -1.52726,0.109771 -2.12467,0.357923 -2.65064,0.808688 -2.64226,-0.302433 -3.27999,0.608506 -0.62849,0.897729 0.49903,1.277788 0.54257,3.242504 -0.0338,0.23307 -0.0507,0.468265 -0.0507,0.703767 2e-5,2.713249 2.19958,4.912748 4.91283,4.9127 2.7132,-1.8e-5 4.91268,-2.199498 4.9127,-4.9127 -2e-5,-2.713202 -2.1995,-4.912682 -4.9127,-4.9127 z"
         inkscape:connector-curvature="0"
         sodipodi:nodetypes="ccaccccc" />
    </g>
  </g>
</svg>
