<?xml version="1.0" encoding="UTF-8" standalone="no"?>
<svg
   xmlns:dc="http://purl.org/dc/elements/1.1/"
   xmlns:cc="http://creativecommons.org/ns#"
   xmlns:rdf="http://www.w3.org/1999/02/22-rdf-syntax-ns#"
   xmlns:svg="http://www.w3.org/2000/svg"
   xmlns="http://www.w3.org/2000/svg"
   xmlns:sodipodi="http://sodipodi.sourceforge.net/DTD/sodipodi-0.dtd"
   xmlns:inkscape="http://www.inkscape.org/namespaces/inkscape"
   width="4.0027223in"
   height="2.4708073in"
   viewBox="0 0 101.66914 62.758505"
   version="1.1"
   id="svg8"
   inkscape:version="1.0alpha2 (863a58d, 2019-08-17)"
   sodipodi:docname="logo_traced.svg">
  <defs
     id="defs2" />
  <sodipodi:namedview
     units="in"
     id="base"
     pagecolor="#ffffff"
     bordercolor="#666666"
     borderopacity="1.0"
     inkscape:pageopacity="0.0"
     inkscape:pageshadow="2"
     inkscape:zoom="0.175"
     inkscape:cx="-970.33819"
     inkscape:cy="197.54028"
     inkscape:document-units="mm"
     inkscape:current-layer="layer1"
     inkscape:document-rotation="0"
     showgrid="false"
     inkscape:window-width="1801"
     inkscape:window-height="907"
     inkscape:window-x="0"
     inkscape:window-y="23"
     inkscape:window-maximized="0" />
  <metadata
     id="metadata5">
    <rdf:RDF>
      <cc:Work
         rdf:about="">
        <dc:format>image/svg+xml</dc:format>
        <dc:type
           rdf:resource="http://purl.org/dc/dcmitype/StillImage" />
        <dc:title></dc:title>
      </cc:Work>
    </rdf:RDF>
  </metadata>
  <g
     inkscape:label="Layer 1"
     inkscape:groupmode="layer"
     id="layer1"
     style="display:inline;opacity:1"
     transform="translate(-236.42733,84.29591)">
    <g
       transform="matrix(0.23829787,0,0,0.23829787,218.808,-40.30673)"
       id="g852">
      <rect
         y="-184.45238"
         x="74.083328"
         height="263.07144"
         width="426.35715"
         id="rect860"
         style="fill:#f8f9f6;fill-opacity:1;stroke:#000000;stroke-width:0.290156;stroke-opacity:0" />
      <flowRoot
         transform="scale(0.26458333)"
         style="font-style:normal;font-weight:normal;font-size:40px;font-family:sans-serif;fill:#000000;fill-opacity:1;stroke:none"
         id="flowRoot847"
         xml:space="preserve"><flowRegion
           id="flowRegion849"><rect
             style=""
             y="702.85712"
             x="962.85712"
             height="362.85715"
             width="477.14285"
             id="rect851" /></flowRegion><flowPara
           id="flowPara853" /></flowRoot>      <g
         transform="translate(-12.488253,-255.02647)"
         id="g858">
        <text
           xml:space="preserve"
           style="font-style:normal;font-weight:normal;font-size:103.75px;line-height:normal;font-family:sans-serif;letter-spacing:-4.99533px;fill:#02515e;fill-opacity:1;stroke:none;stroke-width:2.59377"
           x="130.50182"
           y="282.38943"
           id="text857"><tspan
             sodipodi:role="line"
             id="tspan855"
             x="130.50182"
             y="282.38943"
             style="font-style:normal;font-variant:normal;font-weight:normal;font-stretch:normal;line-height:0;font-family:ScrambleMixed;-inkscape-font-specification:ScrambleMixed;letter-spacing:-4.99533px;fill:#02515e;fill-opacity:1;stroke-width:2.59377"
             dx="0 1.35 0 0 2.2 2.0999999 -2.0999999">AL<tspan
   style="letter-spacing:-5.42925px;fill:#02515e;fill-opacity:1"
   id="tspan941"
   dx="1.17 -4.7200007">FA</tspan>BET</tspan></text>
        <path
           id="path1027"
           style="fill:#ffb92a;fill-opacity:1;stroke-width:0.999999"
           d="m 1069.7109,459.71875 c -65.7348,-7.8e-4 -119.03024,53.25133 -119.10348,118.96875 -2.04096,15.56448 -5.26521,30.18085 -20.51367,35.72852 -11.91879,5.73285 -23.83903,2.14932 -35.75781,-3.18164 a 77.918521,77.918521 0 0 0 -48.36328,-16.82813 77.918521,77.918521 0 0 0 -77.91797,77.91992 77.918521,77.918521 0 0 0 77.91797,77.91797 77.918521,77.918521 0 0 0 77.91796,-77.91797 77.918521,77.918521 0 0 0 -0.61914,-9.79297 c 0.71442,-15.43034 4.93341,-22.8805 16.34766,-27.10351 10.68677,-3.95385 21.02775,0.549 29.43945,7.09375 21.11871,33.29898 58.30271,55.4048 100.65231,55.40429 40.7471,-2e-4 78.6662,-20.83077 100.5215,-55.2207 41.3859,-38.47913 66.4898,-11.8743 70.5879,-38.33398 4.182,-27.00141 -27.6414,-4.82695 -56.8242,-59.07813 -2.8136,-9.59232 -6.8237,-18.79225 -11.9356,-27.38281 -0.2114,-0.58931 -0.4239,-1.16132 -0.6347,-1.76172 l -0.08,0.57813 c -21.6339,-35.41071 -60.1385,-57.00902 -101.6348,-57.00977 z"
           transform="scale(0.26458333)"
           inkscape:connector-curvature="0" />
        <path
           id="circle1031"
           style="opacity:1;fill:#ff7b15;fill-opacity:1;stroke-width:0.654206"
           d="m 1353.5566,593.29492 c -10.2601,-6.1e-4 -24.2231,1.74103 -33.6983,5.67685 -42.0406,12.82621 -41.9076,-4.79675 -52.0224,9.65121 -9.9681,14.23845 7.915,20.26638 8.6055,51.4278 -0.5354,3.69661 -0.8044,7.42693 -0.8047,11.16211 3e-4,43.03353 34.8864,77.91873 77.9199,77.91797 43.0328,-2.9e-4 77.9177,-34.88518 77.918,-77.91797 -3e-4,-43.03279 -34.8852,-77.91768 -77.918,-77.91797 z"
           transform="scale(0.26458333)"
           inkscape:connector-curvature="0"
           sodipodi:nodetypes="ccaccccc" />
      </g>
    </g>
  </g>
</svg>
