<?xml version="1.0" encoding="UTF-8" standalone="no"?>
<svg
   xmlns:dc="http://purl.org/dc/elements/1.1/"
   xmlns:cc="http://creativecommons.org/ns#"
   xmlns:rdf="http://www.w3.org/1999/02/22-rdf-syntax-ns#"
   xmlns:svg="http://www.w3.org/2000/svg"
   xmlns="http://www.w3.org/2000/svg"
   xmlns:sodipodi="http://sodipodi.sourceforge.net/DTD/sodipodi-0.dtd"
   xmlns:inkscape="http://www.inkscape.org/namespaces/inkscape"
   width="4.4199762in"
   height="0.5094499in"
   viewBox="0 0 112.26739 12.940027"
   version="1.1"
   id="svg8"
   inkscape:version="1.0alpha2 (863a58d, 2019-08-17)"
   sodipodi:docname="logo_wide.svg">
  <defs
     id="defs2" />
  <sodipodi:namedview
     units="in"
     id="base"
     pagecolor="#ffffff"
     bordercolor="#666666"
     borderopacity="1.0"
     inkscape:pageopacity="0.0"
     inkscape:pageshadow="2"
     inkscape:zoom="1.8818836"
     inkscape:cx="263.80963"
     inkscape:cy="62.009429"
     inkscape:document-units="mm"
     inkscape:current-layer="layer1"
     inkscape:document-rotation="0"
     showgrid="false"
     inkscape:window-width="1801"
     inkscape:window-height="907"
     inkscape:window-x="430"
     inkscape:window-y="359"
     inkscape:window-maximized="0" />
  <metadata
     id="metadata5">
    <rdf:RDF>
      <cc:Work
         rdf:about="">
        <dc:format>image/svg+xml</dc:format>
        <dc:type
           rdf:resource="http://purl.org/dc/dcmitype/StillImage" />
        <dc:title />
      </cc:Work>
    </rdf:RDF>
  </metadata>
  <g
     inkscape:label="Layer 1"
     inkscape:groupmode="layer"
     id="layer1"
     style="display:inline;opacity:1"
     transform="translate(-212.82692,59.386669)">
    <g
       transform="translate(-1.2217143)"
       aria-label="ALFABET"
       id="text857"
       style="font-style:normal;font-weight:normal;font-size:24.72340000000000160px;line-height:normal;font-family:sans-serif;letter-spacing:-1.19037999999999999px;opacity:1;fill:#045a8d;fill-opacity:1;stroke:none;stroke-width:0.61809;stop-opacity:1">
      <path
         d="m 257.067,-48.100437 -0.54392,-1.582297 h -5.09302 l -0.59336,1.582297 q -0.19779,0.568638 -0.44502,1.08783 -0.22251,0.519191 -0.91477,0.519191 -0.46974,0 -0.86531,-0.321404 -0.5192,-0.420298 -0.37086,-0.988936 0.14835,-0.568638 0.37086,-1.08783 0.86531,-2.200382 1.75536,-4.425488 0.89004,-2.24983 1.73064,-4.499659 0.14834,-0.370851 0.37085,-0.741702 0.24723,-0.395574 0.61808,-0.568638 0.8406,-0.519192 1.73064,0 0.56864,0.321404 0.81587,0.939489 0.27196,0.618085 0.49447,1.162 l 3.28821,8.035105 q 0.39558,0.988936 0.39558,1.335063 0,0.791149 -0.86532,1.112553 -0.8406,0.296681 -1.2609,-0.321404 -0.17306,-0.247234 -0.3214,-0.593361 -0.14834,-0.346128 -0.29668,-0.642809 z m -4.9694,-3.461276 h 3.70851 l -1.87898,-5.117744 z"
         style="font-style:normal;font-variant:normal;font-weight:normal;font-stretch:normal;line-height:0;font-family:ScrambleMixed;-inkscape-font-specification:ScrambleMixed;letter-spacing:-1.19037999999999999px;fill:#045a8d;fill-opacity:1;stroke-width:0.61809"
         id="path926"
         inkscape:connector-curvature="0" />
      <path
         d="m 263.82201,-57.816733 v 9.024041 h 5.11775 q 0.42029,0 0.81587,0.271957 0.4203,0.247234 0.4203,0.815873 0,0.543914 -0.4203,0.791148 -0.39558,0.222511 -0.81587,0.222511 h -6.10668 q -1.55758,0 -1.55758,-1.532851 v -9.592679 q 0,-0.692255 0.39558,-1.162 0.27195,-0.346127 0.86532,-0.346127 0.59336,0 0.91476,0.346127 0.37085,0.469745 0.37085,1.162 z"
         style="font-style:normal;font-variant:normal;font-weight:normal;font-stretch:normal;line-height:0;font-family:ScrambleMixed;-inkscape-font-specification:ScrambleMixed;letter-spacing:-1.19037999999999999px;fill:#045a8d;fill-opacity:1;stroke-width:0.61809"
         id="path928"
         inkscape:connector-curvature="0" />
      <path
         d="m 279.05791,-57.198648 h -4.94468 v 3.189319 h 4.12881 q 0.4203,0 0.79115,0.22251 0.39557,0.197787 0.39557,0.716979 0,0.568638 -0.39557,0.766425 -0.37085,0.173064 -0.79115,0.173064 h -4.12881 v 4.079361 q 0,0.667532 -0.3214,1.112553 -0.29668,0.445021 -0.93949,0.445021 -0.71698,0 -1.01366,-0.445021 -0.27196,-0.445021 -0.27196,-1.112553 v -9.518509 q 0,-1.557574 1.55758,-1.557574 h 5.93361 q 1.21145,0 1.21145,0.939489 0,0.988936 -1.21145,0.988936 z"
         style="letter-spacing:-1.29377999999999993px;fill:#045a8d;fill-opacity:1;stroke-width:0.61809"
         id="path930"
         inkscape:connector-curvature="0" />
      <path
         d="m 289.1807,-48.100437 -0.54392,-1.582297 h -5.09302 l -0.59336,1.582297 q -0.19779,0.568638 -0.44502,1.08783 -0.22251,0.519191 -0.91477,0.519191 -0.46974,0 -0.86532,-0.321404 -0.51919,-0.420298 -0.37085,-0.988936 0.14834,-0.568638 0.37085,-1.08783 0.86532,-2.200382 1.75536,-4.425488 0.89005,-2.24983 1.73064,-4.499659 0.14834,-0.370851 0.37085,-0.741702 0.24724,-0.395574 0.61809,-0.568638 0.84059,-0.519192 1.73064,0 0.56863,0.321404 0.81587,0.939489 0.27196,0.618085 0.49447,1.162 l 3.28821,8.035105 q 0.39557,0.988936 0.39557,1.335063 0,0.791149 -0.86532,1.112553 -0.84059,0.296681 -1.26089,-0.321404 -0.17306,-0.247234 -0.3214,-0.593361 -0.14834,-0.346128 -0.29668,-0.642809 z m -4.96941,-3.461276 h 3.70851 l -1.87898,-5.117744 z"
         style="letter-spacing:-1.29377999999999993px;fill:#045a8d;fill-opacity:1;stroke-width:0.61809"
         id="path932"
         inkscape:connector-curvature="0" />
      <path
         d="m 298.80389,-46.691203 h -3.80741 q -1.50813,0 -1.50813,-1.532851 v -9.345445 q 0,-1.557574 1.50813,-1.557574 h 4.05464 q 0.69226,0 1.53285,0.09889 1.13728,0.173064 1.87898,1.038383 0.76642,0.840596 0.76642,1.953149 0,1.928425 -1.87897,2.744297 2.49706,0.791149 2.49706,3.040978 0,2.299277 -2.02732,3.090425 -0.71698,0.346128 -1.50813,0.420298 -0.79115,0.04945 -1.50812,0.04945 z m -0.17307,-5.538042 h -2.6454 v 3.63434 h 2.71957 q 2.54651,0 2.54651,-1.854255 0,-1.112553 -0.86532,-1.433957 -0.86532,-0.346128 -1.75536,-0.346128 z m -2.6454,-5.01885 v 3.238766 h 2.29927 q 0.61809,0 1.23617,-0.123617 0.64281,-0.148341 1.01366,-0.766426 0.81588,-1.45868 -0.34612,-1.903702 -1.13728,-0.445021 -2.12622,-0.445021 z"
         style="font-style:normal;font-variant:normal;font-weight:normal;font-stretch:normal;line-height:0;font-family:ScrambleMixed;-inkscape-font-specification:ScrambleMixed;letter-spacing:-1.19037999999999999px;fill:#045a8d;fill-opacity:1;stroke-width:0.61809"
         id="path934"
         inkscape:connector-curvature="0" />
      <path
         d="m 313.68156,-57.198648 h -5.68638 v 3.040978 h 5.21664 q 1.18672,0 1.18672,0.939489 0,0.568639 -0.39557,0.791149 -0.37085,0.197787 -0.79115,0.197787 h -5.21664 v 3.535447 h 5.88417 q 1.21145,0 1.21145,0.988936 0,0.543914 -0.39558,0.791148 -0.39557,0.222511 -0.81587,0.222511 h -6.87311 q -1.50812,0 -1.50812,-1.532851 v -9.345445 q 0,-1.557574 1.50812,-1.557574 h 6.67532 q 0.4203,0 0.79115,0.22251 0.39558,0.197788 0.39558,0.716979 0,0.988936 -1.18673,0.988936 z"
         style="font-style:normal;font-variant:normal;font-weight:normal;font-stretch:normal;line-height:0;font-family:ScrambleMixed;-inkscape-font-specification:ScrambleMixed;letter-spacing:-1.19037999999999999px;fill:#045a8d;fill-opacity:1;stroke-width:0.61809"
         id="path936"
         inkscape:connector-curvature="0" />
      <path
         d="m 322.28612,-57.075031 v 9.024041 q 0,0.618085 -0.29668,1.08783 -0.27196,0.469744 -0.98894,0.469744 -0.69225,0 -0.98893,-0.445021 -0.27196,-0.445021 -0.27196,-1.112553 v -9.024041 h -2.71958 q -0.51919,0 -0.91476,-0.222511 -0.37085,-0.247234 -0.37085,-0.791148 0,-0.568639 0.37085,-0.791149 0.39557,-0.247234 0.91476,-0.247234 h 7.98566 q 0.51919,0 0.91477,0.247234 0.39557,0.22251 0.39557,0.791149 0,0.543914 -0.39557,0.791148 -0.39558,0.222511 -0.91477,0.222511 v 0 z"
         style="font-style:normal;font-variant:normal;font-weight:normal;font-stretch:normal;line-height:0;font-family:ScrambleMixed;-inkscape-font-specification:ScrambleMixed;letter-spacing:-1.19037999999999999px;fill:#045a8d;fill-opacity:1;stroke-width:0.61809"
         id="path938"
         inkscape:connector-curvature="0" />
    </g>
    <g
       transform="matrix(0.06304964,0,0,0.06304964,217.58629,-40.30673)"
       id="flowRoot847"
       style="font-style:normal;font-weight:normal;font-size:40px;font-family:sans-serif;opacity:1;fill:#000000;fill-opacity:1;stroke:none;stop-opacity:1" />
    <path
       id="path1027"
       style="opacity:1;fill:#a6bddb;fill-opacity:1;stroke:#000000;stroke-width:0.0445396;stroke-opacity:0;stop-opacity:1"
       d="m 226.26257,-59.386601 c -2.92781,-3.4e-5 -5.30156,2.371794 -5.30482,5.298822 -0.0909,0.693236 -0.23451,1.344243 -0.91367,1.591335 -0.53086,0.255338 -1.06179,0.09573 -1.59264,-0.141709 a 3.4704607,3.4704607 0 0 0 -2.15409,-0.749519 3.4704607,3.4704607 0 0 0 -3.47043,3.470523 3.4704607,3.4704607 0 0 0 3.47043,3.470436 3.4704607,3.4704607 0 0 0 3.47044,-3.470436 3.4704607,3.4704607 0 0 0 -0.0275,-0.436175 c 0.0319,-0.687262 0.21973,-1.019089 0.72812,-1.20718 0.47599,-0.176103 0.93657,0.02445 1.31123,0.315953 0.94061,1.483123 2.59677,2.467708 4.48301,2.467686 1.81486,-9e-6 3.50376,-0.927795 4.47718,-2.459509 1.84332,-1.713845 2.96144,-0.528876 3.14396,-1.707381 0.18627,-1.202632 -1.23114,-0.21499 -2.53092,-2.631317 -0.12532,-0.427238 -0.30393,-0.836999 -0.53161,-1.219619 -0.009,-0.02625 -0.0189,-0.05172 -0.0283,-0.07847 l -0.004,0.02575 c -0.96357,-1.577179 -2.67855,-2.539159 -4.52678,-2.539193 z"
       inkscape:connector-curvature="0" />
    <path
       id="circle1031"
       style="opacity:1;fill:#045a8d;fill-opacity:1;stroke-width:0.029138;stop-opacity:1"
       d="m 238.90495,-53.43717 c -0.45699,-2.7e-5 -1.07889,0.07754 -1.50091,0.252844 -1.87247,0.571275 -1.86655,-0.213645 -2.31706,0.429862 -0.44398,0.634175 0.35253,0.902657 0.38328,2.290574 -0.0239,0.164646 -0.0358,0.330792 -0.0358,0.497156 1e-5,1.916697 1.55383,3.47047 3.47053,3.470436 1.91666,-1.3e-5 3.47042,-1.553772 3.47043,-3.470436 -1e-5,-1.916664 -1.55377,-3.470424 -3.47043,-3.470436 z"
       inkscape:connector-curvature="0"
       sodipodi:nodetypes="ccaccccc" />
  </g>
</svg>
